<?xml version="1.0" standalone="no"?>
<!DOCTYPE svg PUBLIC "-//W3C//DTD SVG 20010904//EN"
 "http://www.w3.org/TR/2001/REC-SVG-20010904/DTD/svg10.dtd">
<svg version="1.0" xmlns="http://www.w3.org/2000/svg"
 width="436.000000pt" height="436.000000pt" viewBox="0 0 436.000000 436.000000"
 preserveAspectRatio="xMidYMid meet">

<g transform="translate(0.000000,436.000000) scale(0.100000,-0.100000)"
fill="#000000" stroke="none">
<path d="M950 4309 c-274 -26 -446 -98 -614 -258 -153 -147 -234 -307 -277
-551 -17 -94 -25 -2348 -9 -2520 29 -319 94 -474 275 -655 107 -107 180 -156
307 -205 171 -66 115 -63 1488 -67 872 -3 1274 -1 1343 7 255 29 435 115 595
285 127 135 195 273 234 478 20 109 21 142 25 1247 5 1230 1 1376 -43 1549
-45 177 -123 311 -257 437 -160 153 -344 229 -617 253 -136 13 -2319 13 -2450
0z m1080 -1514 l0 -155 -415 0 -415 0 0 -160 0 -160 365 0 365 0 0 -155 0
-155 -365 0 -365 0 0 -295 0 -295 -165 0 -165 0 0 765 0 765 580 0 580 0 0
-155z m1460 0 l0 -155 -580 0 -580 0 0 155 0 155 580 0 580 0 0 -155z m0 -635
l0 -150 -580 0 -580 0 0 150 0 150 580 0 580 0 0 -150z m0 -590 l0 -150 -580
0 -580 0 0 150 0 150 580 0 580 0 0 -150z"/>
</g>
</svg>
